# xmcd CD database file
#
# Track frame offsets:
#	150
#	13991
#	34588
#	45575
#	56692
#	69731
#	79929
#	91472
#	101616
#	114800
#	130014
#
# Disc length: 2028 seconds
#
# Revision: 0
# Processed by: cddbd v1.5PL3 Copyright (c) Steve Scherf et al.
# Submitted via: CDex 1.50
#
DISCID=8b07ea0b
DTITLE=Heavy Mellow - Acoustic Abstracts
DYEAR=2004
DGENRE=New Age
TTITLE0=Weaving
TTITLE1=Maybe It'll Rain
TTITLE2=Oh My God
TTITLE3=Double Time
TTITLE4=Midnight Chimes
TTITLE5=Snake Bite Suite
TTITLE6=St. George Island
TTITLE7=To Shea
TTITLE8=Long Ago and Far Away
TTITLE9=Delight
TTITLE10=Bright Side
EXTD=YEAR: 2004
EXTT0=
EXTT1=
EXTT2=
EXTT3=
EXTT4=
EXTT5=
EXTT6=
EXTT7=
EXTT8=
EXTT9=
EXTT10=
PLAYORDER=
